<svg xmlns="http://www.w3.org/2000/svg" xmlns:xlink="http://www.w3.org/1999/xlink" version="1.1" x="0px" y="0px" viewBox="0 0 29.017 37.432500000000005" style="enable-background:new 0 0 29.017 29.946;" xml:space="preserve"><g><path d="M29,14.958c0-1.011-0.781-0.974-1-1.011l-0.723,0.624c0.881,0.751,0.841,2.638,0.841,2.638   C16.69,17.881,2.689,27.85,2.689,27.85l-2.63-1.314C0.002,26.811,0,27.258,0,27.533v1.793c0,0.494,0.373,0.744,0.83,0.559   L28,18.947c0.456-0.186,1-0.777,1-1.27C29,17.678,29.037,15.033,29,14.958z"/><polygon points="29,11.141 0,22.977 0,24.379 29,12.39  "/><ellipse cx="8.999" cy="10.282" rx="0.635" ry="0.448"/><ellipse cx="18.931" cy="7.257" rx="0.634" ry="0.447"/><ellipse cx="11.502" cy="6.809" rx="0.337" ry="0.236"/><ellipse cx="7.356" cy="12.224" rx="0.337" ry="0.237"/><path d="M13.532,6.307c0.874,0.377,1.924-0.111,2.344-1.088c0.421-0.979,0.264-2.493-0.611-2.869   c-0.873-0.376-2.134,0.53-2.555,1.507C12.29,4.835,12.658,5.932,13.532,6.307z"/><path d="M0.83,21.168l27.018-10.977C28.304,10.006,29,9.451,29,8.958c0,0,0.015-1.107,0.016-1.978   c0.002-0.479-0.34-0.887-0.811-0.971L17.096,4.027c0.004,0.52-0.086,1.044-0.277,1.515l6.056,1.086   c0.418,0.076,0.439,0.269,0.048,0.431L4.541,14.612c-0.393,0.16-0.519,0.005-0.281-0.347l6.19-8.983   c0.224-0.329,0.707-0.335,1.111-0.334c-0.043-0.487,0.02-0.996,0.229-1.485c0.041-0.094,0.095-0.188,0.147-0.282l-1.013-0.218   c-0.417-0.076-0.953,0.129-1.19,0.479L0.121,17.643C0,17.826,0,18.461,0,18.814v1.793C0,21.1,0.373,21.354,0.83,21.168z"/><path d="M15.72,2.02l0.511-1.298c0.045-0.116,0.146-0.641-0.074-0.715c-0.15-0.051-0.34,0.163-0.491,0.513L15.12,1.766   c0.123,0.022,0.241,0.054,0.353,0.101C15.563,1.907,15.64,1.967,15.72,2.02z"/><path d="M13.793,6.925c-0.16-0.029-0.317-0.068-0.469-0.134c-0.114-0.051-0.218-0.115-0.32-0.182L12,8.946h0.976L13.793,6.925z"/></g><text x="0" y="44.946" fill="#000000" font-size="5px" font-weight="bold" font-family="'Helvetica Neue', Helvetica, Arial-Unicode, Arial, Sans-serif">Created by Baboon designs</text><text x="0" y="49.946" fill="#000000" font-size="5px" font-weight="bold" font-family="'Helvetica Neue', Helvetica, Arial-Unicode, Arial, Sans-serif">from the Noun Project</text></svg>